<svg xmlns="http://www.w3.org/2000/svg" viewBox="0 0 303.97 220.49"><defs><style>.cls-1{fill:#09120a;fill-rule:evenodd;}</style></defs><g id="Layer_2" data-name="Layer 2"><g id="katman_1" data-name="katman 1"><path class="cls-1" d="M152,108.07v18.81h.07c8.12,0,15.31-7.67,20.86-13.49L166.84,103c-1.62,2.22-3.12,5.26-4.9,5.19C159.59,108.09,155.8,108.08,152,108.07ZM152,72v2.52h2.21c1,.68,1.31,1.5,1.19,4.13,8.73-1,9.81,6.45,14.88,8.57,15.09,6.32,24.48-.09,29.52-7.8-8.89,6.44-20.86,10-26.13,5.6a16.43,16.43,0,0,0,8.91.23c3.18-.76,6.49-2.78,9.56-4.29,3.74-1.83,7.25-3.81,8.81-6.55.72-1.25.83-3.25,1.27-3.25s.94,4-.23,6.09c1.05-1,2.76-3.19,2.85-5,.3-5.79-6.26-14.16-16.25-10.84l-19.2,10.75c-.74.41-1.91,1.41-2.66,1.4-3.82-.08-6,2-1.9,4.28.42.24,1.18.73,0,.63a6.26,6.26,0,0,1-1.71-.5c-5.33-2.88-2.76-9.4,2.62-14.41,3.08-2.86,6.76-4.78,9.32-7,1.81-1.58,2.56-2.84,2.25-5.22a7.69,7.69,0,0,0-2.18-5c.68,1.65,1.74,6.14.61,7.64-1.41,1.89-5.67,3.51-7.55,4.9a40.8,40.8,0,0,0-10,10.06,74.21,74.21,0,0,1-2.37-19.17A113.32,113.32,0,0,0,155.36,72ZM100.82,15c18.86,8.43,32.71,10,50.21,10.1h1V46.36h.74c16,.34,25.78-11,45.85-4.82,5.85-12.85,15.92-26.23,30.62-38,.16.24.32.5.48.77-15,17.88-24.18,40.68-28.4,45.42-.23.26-.83.94-1.19,1-.73.12-1.7-1.19-2.28-3.42C197,61,210,63.41,206.69,78.26c7.28-9.1,16-5.08,20.23-12.73-6,.73-10.4.47-15.45-2.37,3.5-2.43,7-11,7.63-13.69.71,1.26.77,5.37.24,8.73,1.93-2.2,2.93-10.84,3.73-13.62a40.05,40.05,0,0,1,.4,10.61c3-4.76,2.62-14,3.08-16.76,1.27,2.65,1.51,6.55,1.82,10.57,2-4.87,1.59-11.52,1.6-13.13a13,13,0,0,1,1.17,6.25c2.6-5.71,4-14.81,3.28-23.63,2.69,13.42,3,31.42-3.12,41.94l10-6.64,23.91,5.11c-11.18,3.54-24.14,4.3-34.32,9.89,10.49,12,34.71,18,52.39,27.52-2.9.29-25.17-3.69-48.45-3.07-42.63,1.13-60.22,7.51-56.73,31.64-7.93,2.7-17.36,7.74-26,8.39H152v40.21c1-2.26,5.24-1.62,7.27-9.82.07,5.22-3.62,12.06-7.27,17v15.64a14.78,14.78,0,0,1,1.54-4.27c1.05,1,1.13,2.4,1.91,2.35.49-.05.76-1.4.77-3.83a11.51,11.51,0,0,1,1.85,3.72c1.58-3,1.6-8.51,1.08-11.2,4.21,5.44,3.49,14.69,2.7,16.78a12,12,0,0,0,3.32-4.89c.93-2.66.77-4.88.86-7.64.53-15.69,2.59-26.05,5.43-30-1.12,4.87-1.46,7.33-1.25,15.13,8-26.36,14.57-48.29,31-54.38-17.62,12-18.2,26-22.79,39.91-4.74,14.37-3.18,28.68-10,41-2.53,4.58-7.3,6.19-16.45,6.28v8.23c5.31,0,11.88-1.12,15.38-8.2.25,8.53-8.05,10.95-15.38,10.75v4.46c-11.09-.12-15.35-1.19-18.63-11.71l-8.49-27.24L81.34,201,92.74,173l-38.49,8.89,18.58-23.3L0,165.7l61.7-46.5L11.23,97c8.08-3.73,38.5-17.14,40.37-18.24-3.41-4.31-15.45-16-18.55-21.31,13.14-3.65,27.76-6.27,32.17-6.61C61.8,38.14,66,11.23,73.28,0,81.14,4,91,15.43,94.61,20A38.84,38.84,0,0,1,100.82,15ZM208.7,123.84l21.39-7.67,41.07,29.88c-12.49-7.6-24.77-15.54-37.26-23.14-2.56-1.55-3.33-.38-1.19,1.23L254,138.8c-10.45-4.72-20.62-10.16-31.06-14.87-1.69-.76-1.89.49-.8,1l14.5,8.66Zm-8.84.26,30.63-10.44,62.45,47.07Zm-5.55,26.58,15.4-2.07c6.39,4.12,18.11,9.93,23.29,19-8.63-5.92-13.18-9.73-21.25-13.91-1.11-.66-2.66-.26-.91,1l15.29,9.88Zm-7-.43L211,145.62c15.23,10.62,21.48,15.36,30.63,31.46Zm-.82,15a158.84,158.84,0,0,1,26,20.62c-1.74-4.12-3.81-8.24-5.55-12.36C199.92,169.34,193.78,164.67,186.45,165.29Zm-3.6-.9,11.16-.73,14.05,7.1,9.78,25.56Zm-89.4-40.55-21.38-7.67L31,146.05c12.49-7.6,24.77-15.54,37.26-23.14,2.55-1.55,3.33-.38,1.18,1.23L48.16,138.8c10.46-4.72,20.62-10.16,31.07-14.87,1.68-.76,1.89.49.79,1l-14.49,8.66Zm9.41.26L72.23,113.66,9.77,160.73Zm5.87,26.58-15.39-2.07c-6.4,4.12-18.12,9.93-23.29,19,8.63-5.92,13.18-9.73,21.25-13.91,1.1-.66,2.66-.26.91,1l-15.3,9.88Zm7.15-.17-23.77-4.63c-15.75,9.17-19.5,15.76-31.29,31.6Zm2,14.78a158.79,158.79,0,0,0-25.94,20.62c1.74-4.12,3.8-8.24,5.54-12.36C104.39,169.34,110.53,164.67,117.86,165.29Zm3.38-.9-11.16-.73-14,7.1-9.78,25.56Zm25.49-22.7c-.22,3,.83,3.33,3.8,7,0-2.23-.42-4.67.11-6.94a2.35,2.35,0,0,0-.57-2.45C149.2,138.68,146.82,140.37,146.73,141.69Zm-3.94-1.85c-.07,3.26.65,4.95,3.14,8.92a44.19,44.19,0,0,1,.32-7.43,3.42,3.42,0,0,0-.83-2.63A1.65,1.65,0,0,0,142.79,139.84Zm-1.32-.73c-1.4-2.06-2.54-3.19-4.94-3.89-1.54-.45-1.14.09-1.17,1.53-.16,6.32.77,12,6.66,19.21-.15-4.64-.72-9.7,0-14.41A2.36,2.36,0,0,0,141.47,139.11Zm15.39,2.58c.21,3-.83,3.33-3.8,7,0-2.23.42-4.67-.12-6.94a2.37,2.37,0,0,1,.57-2.45C154.39,138.68,156.77,140.37,156.86,141.69Zm3.93-1.85c.07,3.26-.65,4.95-3.13,8.92a44.19,44.19,0,0,0-.32-7.43,3.42,3.42,0,0,1,.83-2.63A1.65,1.65,0,0,1,160.79,139.84Zm1.33-.73c1.4-2.06,2.54-3.19,4.94-3.89,1.54-.45,1.14.09,1.17,1.53.16,6.32-.77,12-6.67,19.21.16-4.64.73-9.7,0-14.41A2.39,2.39,0,0,1,162.12,139.11Zm-4.52-51.3c1.12-.59,2.46-.7,4.88-.15,1.88.42,4.86,4.59,7.8,5.5,3.54,1.09,4.64.58,11.91-.32-4.23,2.51-8.6,4.35-11.52,4-2.42-.31-4.06-2.26-7.48-3.93-1.08-.52-2.43-.15-3.82-.47a6,6,0,0,1-3.52-3.06c1.62,1,2.77,1.16,5.55,1.3.78,0,.73-.55.32-.91A7.32,7.32,0,0,0,157.6,87.81Zm-5.08-5.55c9.66-1,11.48.6,15.45,7.74C162.05,84.4,158.31,83,152.52,82.26Zm-6.59,5.55c-1.11-.59-2.45-.7-4.87-.15-1.88.42-4.87,4.59-7.8,5.5-3.54,1.09-4.64.58-11.92-.32,4.24,2.51,8.61,4.35,11.53,4,2.42-.31,4.06-2.26,7.48-3.93,1.08-.52,2.43-.15,3.81-.47a5.94,5.94,0,0,0,3.52-3.06c-1.62,1-2.76,1.16-5.54,1.3-.78,0-.74-.55-.32-.91A7.29,7.29,0,0,1,145.93,87.81ZM151,82.26c-9.66-1-11.49.6-15.45,7.74C141.49,84.4,145.23,83,151,82.26ZM76.77,74c.41,3.83.45,9.3-.33,12.07-13.38.15-26.17,2.75-37.5,5.68a277.7,277.7,0,0,1,41-1.91C80.23,83.19,79.06,78.33,76.77,74ZM83,76c2.73,2.37,4.24,9.23,4.39,12,4.71.06,12.31,1.29,19.72,3.15,16.4,4.12,26.55,7.85,21.91,20.59,0-3.14-2-10.16-6.54-12.22a7.9,7.9,0,0,1,2.15,7c-1.39-4-6.7-8.13-13.83-10.83A76.89,76.89,0,0,0,86.41,91.1c-1.35,0-2.19-.79-2.13-1.95A52.58,52.58,0,0,0,83,76Zm143.64-2c-.4,3.83-.45,9.3.33,12.07,13.38.15,26.17,2.75,37.5,5.68a277.56,277.56,0,0,0-41-1.91C223.14,83.19,224.3,78.33,226.59,74Zm-6.18,2c-2.73,2.37-4.23,9.23-4.39,12-4.7.06-12.31,1.29-19.71,3.15-16.4,4.12-26.56,7.85-21.92,20.59,0-3.14,2-10.16,6.55-12.22a7.91,7.91,0,0,0-2.16,7c1.4-4,6.7-8.13,13.83-10.83A76.94,76.94,0,0,1,217,91.1c1.35,0,2.19-.79,2.14-1.95A53.09,53.09,0,0,1,220.41,76ZM190,66.13c-4.6,2.31-7.62,3.67-12,5.83-.32.16-.86.86-.25,2.07C181.34,81.3,190.84,76.11,190,66.13Zm-76.29,0c4.6,2.31,7.62,3.67,12,5.83.33.16.86.86.25,2.07C122.27,81.3,112.77,76.11,113.66,66.13Zm50.15,6a24.69,24.69,0,0,1,15.05-10.38C173.88,64.68,169.45,70.16,163.81,72.15Zm-24.25,0a24.69,24.69,0,0,0-15-10.38C129.5,64.68,133.92,70.16,139.56,72.15ZM152,74.53V72h-4.56A113.32,113.32,0,0,0,147,49.8,73.78,73.78,0,0,1,144.59,69a40.59,40.59,0,0,0-10-10.06c-1.88-1.39-6.14-3-7.55-4.9-1.13-1.5-.07-6,.61-7.64a7.74,7.74,0,0,0-2.18,5c-.31,2.38.44,3.64,2.25,5.22,2.56,2.24,6.24,4.16,9.32,7,5.38,5,7.95,11.53,2.62,14.41a6.14,6.14,0,0,1-1.71.5c-1.14.1-.38-.39,0-.63,4.08-2.32,1.92-4.36-1.89-4.28-.76,0-1.93-1-2.67-1.4L114.22,61.46c-10-3.32-16.56,5.05-16.26,10.84.09,1.77,1.8,4,2.85,5-1.17-2-.76-6.08-.23-6.09s.55,2,1.26,3.25c1.57,2.74,5.08,4.72,8.82,6.55,3.07,1.51,6.38,3.53,9.56,4.29a16.43,16.43,0,0,0,8.91-.23c-5.27,4.42-17.24.84-26.13-5.6,5,7.71,14.43,14.12,29.52,7.8,5.07-2.12,6.15-9.6,14.88-8.57-.12-2.63.19-3.45,1.19-4.13Zm0,52.35V108.07H141.36c-1.25,0-3.48-3.23-4.75-5.12q-3,5.22-6,10.44C136.41,119.07,143.68,126.84,152,126.88Zm0-101.81h1.27c17.35-.07,31.15-1.73,49.9-10.1a38.49,38.49,0,0,1,6.2,5C213,15.43,222.84,4,230.69,0c7.27,11.23,11.49,38.13,8.06,50.83,4.41.34,19,3,32.17,6.61-3.09,5.27-15.14,17-18.55,21.31,1.88,1.1,32.3,14.51,40.38,18.23L242.28,119.2,304,165.7l-72.83-7.11,18.58,23.3L211.24,173,222.64,201l-43.53-19.41-8.49,27.23c-3.28,10.53-7.55,11.6-18.63,11.72V216l-.43,0c-7.67-.32-15.12-1.16-15.48-10.73,3.8,8.06,10.43,8.2,15.49,8.2H152v-8.22h-.31c-9.29-.06-14.12-1.67-16.67-6.28-6.8-12.29-5.25-26.6-10-41-4.59-13.94-5.16-27.93-22.79-39.91,16.45,6.09,23,28,31,54.38.21-7.8-.13-10.26-1.25-15.13,2.85,4,4.91,14.34,5.43,30,.09,2.76-.07,5,.86,7.64a12,12,0,0,0,3.32,4.89c-.79-2.09-1.51-11.34,2.71-16.78-.52,2.69-.51,8.22,1.07,11.2a11.59,11.59,0,0,1,1.86-3.72c0,2.43.27,3.78.76,3.83.78,0,.86-1.34,1.91-2.35a17.46,17.46,0,0,1,1.81,5.39c.09-.4.18-.77.26-1.11V180.72l-.15.2a28.17,28.17,0,0,1-7.53-16.76c2.31,8.32,6.74,7,7.53,9.75a1.9,1.9,0,0,1,.15-.42V133.28a3.44,3.44,0,0,1-.55,0c-8.64-.66-18.07-5.69-26-8.39,3.5-24.13-14.09-30.51-56.73-31.64-23.28-.62-45.55,3.36-48.45,3.07C38,86.81,62.18,80.81,72.66,68.79,62.48,63.2,49.52,62.44,38.35,58.9l23.9-5.11,10,6.64c-6.1-10.59-5.8-28.74-3.07-42.18-.73,8.89.64,18.11,3.27,23.87a13,13,0,0,1,1.17-6.25c0,1.62-.43,8.26,1.59,13.13.31-4,.55-7.92,1.83-10.57.45,2.73.1,12,3.07,16.76a40.09,40.09,0,0,1,.4-10.61c.81,2.78,1.81,11.42,3.73,13.62-.52-3.36-.46-7.47.25-8.73.59,2.71,4.13,11.26,7.62,13.69-5,2.84-9.48,3.1-15.45,2.38,4.25,7.64,12.95,3.62,20.24,12.72-3.35-14.85,9.65-17.24,8.88-31-.58,2.23-1.56,3.54-2.29,3.42-.35-.05-1-.73-1.18-1C98.1,45,88.94,22.16,73.91,4.28c.16-.27.31-.52.47-.75C89.07,15.32,99.14,28.7,105,41.55c20.16-6.17,30,5.25,46.06,4.82H152Z"/></g></g></svg>